PathFileType	4	(X/Y/Z)	 s09c0102.trc
DataRate	CameraRate	NumFrames	NumMarkers	Units	OrigDataRate	OrigDataStartFrame	OrigNumFrames
200	200	4	50	mm	200	1751	2000
Frame#	Time	racr			lacr			c7			jug			rlel			rdr			llel			ldr			s2			lic			ric			lasi			rasi			rpsi			lpsi			rgt			lgt			rth1			rth2			rth3			rth4			rlfc			rmfc			rsh1			rsh2			rsh3			rsh4			rlmal			rmmal			rcal			rtoe			rmt5			lth1			lth2			lth4			lth3			llfc			lmfc			llmal			lmmal			lcal			lmt5			lsh1			lsh2			lsh3			lsh4			ltoe			SBIKE			LBIKE			RBIKE			
		X1	Y1	Z1	X2	Y2	Z2	X3	Y3	Z3	X4	Y4	Z4	X5	Y5	Z5	X6	Y6	Z6	X7	Y7	Z7	X8	Y8	Z8	X9	Y9	Z9	X10	Y10	Z10	X11	Y11	Z11	X12	Y12	Z12	X13	Y13	Z13	X14	Y14	Z14	X15	Y15	Z15	X16	Y16	Z16	X17	Y17	Z17	X18	Y18	Z18	X19	Y19	Z19	X20	Y20	Z20	X21	Y21	Z21	X22	Y22	Z22	X23	Y23	Z23	X24	Y24	Z24	X25	Y25	Z25	X26	Y26	Z26	X27	Y27	Z27	X28	Y28	Z28	X29	Y29	Z29	X30	Y30	Z30	X31	Y31	Z31	X32	Y32	Z32	X33	Y33	Z33	X34	Y34	Z34	X35	Y35	Z35	X36	Y36	Z36	X37	Y37	Z37	X38	Y38	Z38	X39	Y39	Z39	X40	Y40	Z40	X41	Y41	Z41	X42	Y42	Z42	X43	Y43	Z43	X44	Y44	Z44	X45	Y45	Z45	X46	Y46	Z46	X47	Y47	Z47	X48	Y48	Z48	X49	Y49	Z49	X50	Y50	Z50	
1751	8.7550	553.050889	1224.902446	-106.002915	544.987733	1214.621112	-409.091895	531.563902	1260.407833	-254.022285	491.256759	1126.292517	-252.518682	519.498186	1017.691606	37.318751	706.572425	878.197637	-35.507521	494.023798	1003.478469	-574.920018	682.907408	887.778058	-460.279340	27.717611	1139.068637	-217.077981	150.553322	1143.977909	-379.758336	177.669740	1115.564702	-77.368961	188.927247	1082.496293	-356.797523	214.908093	1063.423091	-105.108723	64.883424	1161.334724	-159.888068	53.622381	1178.522911	-265.305348	140.115409	970.715519	-46.704633	127.254230	1050.582866	-427.612047	217.065998	856.893170	-56.005500	281.023131	796.372869	-59.771945	300.731950	709.658423	-70.669795	309.383762	812.112484	-77.427383	333.053261	616.804516	-100.327707	319.539777	597.546228	-197.296094	276.662500	533.978435	-68.505116	265.167300	445.677132	-80.557349	212.018979	376.176941	-79.655882	290.576799	438.781791	-110.162013	169.204749	285.388342	-78.340905	176.231662	290.209760	-154.159171	88.212177	291.283542	-116.253735	301.956285	135.094964	-129.681300	227.751649	166.828235	-61.072626	255.920140	1001.556290	-414.959859	340.322123	1001.192968	-403.841818	349.207620	1031.738909	-383.097542	418.449361	957.223173	-408.355618	503.226327	899.767586	-388.952128	511.926249	880.767392	-285.081169	313.055716	582.497980	-410.703321	330.109715	585.720780	-338.492527	232.938612	564.253820	-373.511141	382.625058	474.353570	-431.563647	455.563932	815.796876	-411.458255	430.577461	733.061624	-408.495009	365.083916	672.026973	-410.286648	453.795195	719.160868	-379.201546	472.981117	463.784723	-361.716909	-65.405636	853.086952	-238.392161	20.677487	84.930766	-441.931792	21.091048	84.087396	-43.758109	
1752	8.7600	552.642462	1224.371123	-105.133065	545.753979	1214.558076	-408.076764	532.070569	1260.065091	-252.988796	491.013099	1126.012193	-251.360210	519.006354	1016.951262	37.714487	706.390889	878.005008	-35.114330	493.470256	1004.015281	-574.628678	682.541193	888.312444	-460.133126	27.778897	1140.012382	-217.566336	150.829925	1144.601183	-379.993204	177.161973	1116.117603	-77.734837	189.418593	1082.719972	-357.499265	214.416722	1063.795281	-105.319682	64.737236	1162.155053	-160.437628	54.762417	1178.901857	-265.997189	139.717751	971.434788	-46.982902	127.540117	1050.828414	-427.896340	218.345507	858.156574	-56.293380	282.645390	798.473069	-59.520650	303.396427	712.009468	-70.622026	310.978439	814.511882	-77.000679	336.300350	618.821497	-100.213433	322.218250	600.257914	-197.266253	277.808532	537.470434	-68.462341	263.822719	449.537120	-80.639745	208.758210	381.478837	-79.679947	288.813391	441.861578	-110.490506	163.580979	291.773910	-78.347933	170.465609	296.525378	-154.211686	82.576800	299.616653	-116.434707	292.690215	138.388436	-129.578455	219.239510	172.060276	-61.057234	256.164516	999.386362	-414.764069	340.549686	997.988493	-403.512331	349.822006	1028.522456	-382.975221	418.163311	952.881854	-407.537777	502.644702	894.602452	-387.743013	512.645404	875.384907	-285.653664	317.722146	573.913321	-410.753466	333.631205	578.670111	-336.864609	237.254431	553.107692	-373.913791	390.395384	468.717320	-432.016170	456.029540	809.939728	-410.706554	432.206891	726.149284	-407.393510	367.988913	664.561634	-410.127042	455.720948	713.190987	-378.526171	481.003953	461.713800	-361.792939	-65.402669	853.088119	-238.373408	20.674694	84.913372	-441.938737	21.096314	84.091517	-43.763291	
1753	8.7650	552.137748	1223.938856	-104.034036	546.540296	1214.400695	-406.926098	532.616099	1259.680041	-251.593575	490.735088	1125.818943	-250.016186	518.375347	1016.162893	38.209984	705.967382	877.891404	-34.567002	492.809936	1004.437779	-573.993646	682.166024	888.808577	-459.860005	27.886876	1140.637077	-218.065763	151.256834	1145.193446	-380.473270	176.616133	1116.535029	-78.018501	190.000090	1082.822925	-358.354086	213.820288	1064.135327	-105.543152	64.515299	1162.813563	-161.141555	56.191528	1178.965033	-266.714669	139.461787	972.167030	-47.217548	127.866739	1050.573791	-428.048231	219.148500	859.812144	-56.170334	284.528261	800.788832	-59.433414	306.318867	714.626769	-70.500809	312.758980	817.309188	-76.766417	339.734585	621.304318	-100.207257	325.373419	603.065324	-196.930885	279.258437	541.107458	-68.369529	262.804225	453.665906	-80.710986	205.870345	387.227211	-79.709402	287.610704	445.518985	-110.505687	158.219654	298.776675	-78.442486	165.377294	303.304973	-154.389630	77.489675	308.305846	-116.491506	283.751283	142.440408	-129.380726	211.086093	177.803168	-60.995133	256.401162	996.437038	-414.731403	340.748281	993.886134	-403.417776	350.590510	1024.377552	-382.945014	418.601977	947.194524	-406.647032	501.928091	888.505823	-386.515852	511.714793	869.403815	-284.752669	322.024738	564.604189	-410.741794	337.064604	569.863818	-336.521060	241.578557	541.359374	-374.711298	397.514563	462.640792	-432.649684	456.404050	803.001285	-410.620185	433.740453	718.588114	-406.801154	370.559045	656.081173	-409.979408	457.318795	706.277997	-377.777854	488.506115	459.163738	-361.974295	-65.386616	853.102482	-238.350557	20.671350	84.929246	-441.956680	21.080979	84.102717	-43.769491	
1754	8.7700	551.483510	1223.730514	-102.736002	547.475432	1214.214988	-405.663809	533.202682	1259.278460	-249.785858	490.396072	1125.612737	-248.573591	517.835594	1015.414280	38.729169	705.846445	877.656737	-33.960647	492.126914	1004.803413	-573.226314	681.678726	889.249860	-459.377508	28.002002	1141.163702	-218.714127	151.766939	1145.582756	-381.107517	175.921784	1116.854419	-78.450085	190.670725	1082.783584	-359.293464	212.991370	1064.424961	-106.102444	64.317619	1163.347009	-161.776870	56.625816	1179.438047	-267.383660	139.582670	972.931462	-47.192758	128.236349	1049.657678	-428.000711	220.792470	861.438082	-56.169411	286.676532	803.337978	-59.444423	309.702554	717.511883	-70.234707	314.644985	820.364575	-76.660163	343.513985	623.880608	-100.087161	328.808849	605.936838	-196.464172	280.933303	545.099669	-68.252266	262.031234	458.128850	-80.766549	203.184625	393.442913	-79.601250	286.503981	449.357775	-110.665706	153.294176	306.000570	-78.416835	160.702340	310.532276	-154.550524	72.717492	317.561153	-116.679397	275.603932	147.410261	-128.859346	203.269616	184.092316	-60.942291	256.606225	992.882737	-414.777886	341.036763	988.845408	-403.223079	351.256329	1019.503462	-383.218215	417.841709	941.477731	-407.344841	501.484823	881.517948	-384.646218	511.000810	861.595118	-284.278630	325.752146	554.448195	-410.777683	340.186413	560.288572	-336.355729	245.717201	528.352255	-374.705495	404.343546	455.777613	-432.968441	456.368135	794.897430	-410.229593	434.944319	710.035021	-406.436664	372.693728	646.667535	-409.861270	458.361928	698.080709	-377.153420	495.466954	456.119602	-362.178470	-65.304730	853.048806	-238.375023	20.671244	84.928526	-441.955377	21.097833	84.104618	-43.764258	
